<svg width="20" height="20" viewBox="0 0 20 20" fill="none" xmlns="http://www.w3.org/2000/svg">
<g id="Group 86014">
<path id="Rectangle 29396" d="M15 0H5C2.23858 0 0 2.23858 0 5V15C0 17.7614 2.23858 20 5 20H15C17.7614 20 20 17.7614 20 15V5C20 2.23858 17.7614 0 15 0Z" fill="url(#paint0_linear_2845_8576)"/>
<g id="Clip path group">
<mask id="mask0_2845_8576" style="mask-type:luminance" maskUnits="userSpaceOnUse" x="3" y="3" width="14" height="14">
<g id="clip-path">
<path id="Rectangle 29398" d="M16.875 3.125H3.125V16.875H16.875V3.125Z" fill="white"/>
</g>
</mask>
<g mask="url(#mask0_2845_8576)">
<g id="Mask Group 24">
<g id="Group 86013">
<path id="Path 467458" fill-rule="evenodd" clip-rule="evenodd" d="M7.47559 13.6217C7.47827 13.5578 7.49 13.4947 7.51053 13.4342C7.54657 13.3055 7.62371 13.1921 7.73026 13.1114C7.8368 13.0307 7.96693 12.9871 8.10059 12.9873H14.9661C15.6943 12.9873 15.8224 11.9873 14.893 11.9873C15.296 11.9678 15.6977 12.0463 16.0637 12.216C16.0971 12.2893 16.1225 12.366 16.1394 12.4448C16.3706 13.5173 14.9762 13.5904 14.2349 13.6204L7.47559 13.6217Z" fill="white"/>
<path id="Path 467459" fill-rule="evenodd" clip-rule="evenodd" d="M16.4183 13.5306C16.2824 13.722 16.1089 13.8837 15.9085 14.0059C15.7081 14.1281 15.485 14.2081 15.2526 14.2413C15.158 14.2564 15.0622 14.264 14.9664 14.2638H8.1013C8.01614 14.2706 7.93058 14.2585 7.85059 14.2285C7.77061 14.1985 7.69816 14.1512 7.6385 14.09C7.57884 14.0289 7.53348 13.9554 7.50544 13.8747C7.47741 13.794 7.4674 13.7081 7.4763 13.6231H14.2364C14.9776 13.5931 16.3713 13.52 16.1401 12.4475C16.1234 12.3688 16.0982 12.2921 16.065 12.2188C16.1778 12.2783 16.2771 12.3605 16.3568 12.4601C16.4364 12.5598 16.4947 12.6748 16.528 12.7979C16.5612 12.921 16.5687 13.0497 16.5501 13.1759C16.5314 13.302 16.4869 13.423 16.4195 13.5313L16.4183 13.5306Z" fill="white"/>
<path id="Path 467460" opacity="0.54" fill-rule="evenodd" clip-rule="evenodd" d="M16.4185 13.5302L16.4135 13.5377C16.5216 12.8946 16.2654 12.6583 15.5517 12.4952C15.5617 12.2452 15.3642 11.9902 14.8936 11.9902C16.4236 11.9902 16.7685 12.724 16.4185 13.5302Z" fill="white"/>
<path id="Path 467461" fill-rule="evenodd" clip-rule="evenodd" d="M3.12744 4.34877C3.14347 4.17993 3.22364 4.02371 3.35159 3.91239C3.47955 3.80107 3.64541 3.74315 3.81485 3.75065H4.73679C5.65616 3.75065 6.3318 3.93378 6.70868 4.80316C5.98555 4.27566 5.15859 4.34877 4.01047 4.34877H3.12744Z" fill="white"/>
<path id="Path 467462" fill-rule="evenodd" clip-rule="evenodd" d="M4.97922 5.02987C4.90859 5.02987 4.8286 5.02987 4.73798 5.02987H3.82855C3.67839 5.04707 3.52699 5.01057 3.40116 4.92683C3.27532 4.8431 3.18311 4.71751 3.14099 4.57235C3.12339 4.5 3.11837 4.42517 3.12604 4.3511H4.01044C5.15856 4.3511 5.98475 4.27799 6.7085 4.80549C6.7185 4.82799 6.72596 4.85049 6.73596 4.87549L6.99475 5.5261L7.29596 6.28487C7.13843 5.96725 6.92294 5.68191 6.66043 5.44361C6.1761 5.10581 5.58384 4.95911 4.99783 5.03174L4.97922 5.02987Z" fill="white"/>
<path id="Path 467463" fill-rule="evenodd" clip-rule="evenodd" d="M7.72516 11.2268C7.55131 10.9312 7.40345 10.6211 7.28326 10.2999C6.9566 9.27991 6.63001 8.25908 6.30334 7.23742L5.77829 5.91618L5.64264 5.57178C5.46389 5.11991 5.33887 5.0418 4.97949 5.0293C6.20512 5.0293 6.70775 5.20741 7.29837 6.28304L7.32324 6.34554L7.42075 6.5918H15.552C16.4895 6.5918 16.7751 7.45117 16.5289 8.2218L15.7165 10.7587C15.9694 10.8685 16.1937 11.0349 16.3723 11.245C16.5509 11.455 16.679 11.7033 16.7468 11.9706C16.8145 12.2379 16.82 12.5171 16.7629 12.7869C16.7059 13.0567 16.5877 13.3098 16.4176 13.5268C16.7695 12.7205 16.4227 11.9868 14.8927 11.9868H10.494C8.56089 12.2193 7.72516 11.2268 7.72516 11.2268Z" fill="white"/>
<path id="Path 467464" opacity="0.43" fill-rule="evenodd" clip-rule="evenodd" d="M5.61273 5.49679C5.44961 5.11241 5.31637 5.04242 4.97949 5.0293C6.20512 5.0293 6.70775 5.20741 7.29837 6.28303L7.30585 6.30054C7.09536 6.05582 6.83588 5.85788 6.54428 5.71945C6.25268 5.58102 5.93541 5.50517 5.61273 5.49679Z" fill="white"/>
<path id="Path 467465" fill-rule="evenodd" clip-rule="evenodd" d="M9.74191 14.7734C9.92573 14.7734 10.1054 14.8279 10.2583 14.9301C10.4111 15.0322 10.5302 15.1773 10.6005 15.3471C10.6709 15.5169 10.6893 15.7038 10.6535 15.8841C10.6176 16.0644 10.5291 16.23 10.3991 16.36C10.2691 16.4899 10.1035 16.5785 9.92319 16.6143C9.74291 16.6502 9.55605 16.6317 9.38623 16.5614C9.21641 16.491 9.07133 16.372 8.96921 16.2191C8.86709 16.0663 8.8125 15.8866 8.8125 15.7028C8.81242 15.5807 8.83647 15.4598 8.88315 15.347C8.92982 15.2342 8.99825 15.1317 9.08456 15.0454C9.17088 14.9591 9.27344 14.8907 9.38623 14.844C9.49902 14.7973 9.61984 14.7734 9.74191 14.7734ZM13.4294 14.7734C13.6132 14.7734 13.7929 14.8279 13.9457 14.9301C14.0985 15.0322 14.2178 15.1773 14.2881 15.3471C14.3585 15.5169 14.3768 15.7038 14.3409 15.8841C14.3051 16.0644 14.2165 16.23 14.0865 16.36C13.9566 16.4899 13.7911 16.5785 13.6108 16.6143C13.4305 16.6502 13.2436 16.6317 13.0738 16.5614C12.904 16.491 12.7588 16.372 12.6566 16.2191C12.5545 16.0663 12.5001 15.8866 12.5001 15.7028C12.5004 15.4564 12.5984 15.2202 12.7726 15.046C12.9468 14.8717 13.183 14.7738 13.4294 14.7734Z" fill="white"/>
<path id="Path 467466" fill-rule="evenodd" clip-rule="evenodd" d="M10.6705 15.6796V15.7021C10.6717 15.9404 10.5812 16.1699 10.4178 16.3432C10.2545 16.5166 10.0307 16.6205 9.79285 16.6334C9.55498 16.6463 9.32129 16.5673 9.14008 16.4127C8.95886 16.2581 8.844 16.0396 8.81934 15.8027C9.40746 15.7402 10.0274 15.6996 10.6705 15.6777V15.6796ZM12.4969 15.6796C13.1425 15.6996 13.7625 15.7421 14.3506 15.8046C14.326 16.0419 14.2109 16.2606 14.0294 16.4154C13.848 16.5703 13.6139 16.6494 13.3758 16.6364C13.1376 16.6235 12.9136 16.5195 12.75 16.3459C12.5864 16.1723 12.4957 15.9425 12.4969 15.704V15.6815V15.6796Z" fill="white"/>
</g>
</g>
</g>
</g>
</g>
<defs>
<linearGradient id="paint0_linear_2845_8576" x1="10" y1="0" x2="10" y2="20" gradientUnits="userSpaceOnUse">
<stop stop-color="#93C5FD"/>
<stop offset="1" stop-color="#0065FF"/>
</linearGradient>
</defs>
</svg>
