<svg width="24" height="24" viewBox="0 0 24 24" fill="none" xmlns="http://www.w3.org/2000/svg">
<g clip-path="url(#clip0_7478_7814)">
<path d="M6 8C6.39556 8 6.78224 7.8827 7.11114 7.66294C7.44004 7.44318 7.69638 7.13082 7.84776 6.76537C7.99913 6.39992 8.03874 5.99778 7.96157 5.60982C7.8844 5.22186 7.69392 4.86549 7.41421 4.58579C7.13451 4.30608 6.77814 4.1156 6.39018 4.03843C6.00222 3.96126 5.60009 4.00087 5.23463 4.15224C4.86918 4.30362 4.55682 4.55996 4.33706 4.88886C4.1173 5.21776 4 5.60444 4 6C4 6.53043 4.21071 7.03914 4.58579 7.41421C4.96086 7.78929 5.46957 8 6 8ZM12 20C12.3956 20 12.7822 19.8827 13.1111 19.6629C13.44 19.4432 13.6964 19.1308 13.8478 18.7654C13.9991 18.3999 14.0387 17.9978 13.9616 17.6098C13.8844 17.2219 13.6939 16.8655 13.4142 16.5858C13.1345 16.3061 12.7781 16.1156 12.3902 16.0384C12.0022 15.9613 11.6001 16.0009 11.2346 16.1522C10.8692 16.3036 10.5568 16.56 10.3371 16.8889C10.1173 17.2178 10 17.6044 10 18C10 18.5304 10.2107 19.0391 10.5858 19.4142C10.9609 19.7893 11.4696 20 12 20ZM6 20C6.39556 20 6.78224 19.8827 7.11114 19.6629C7.44004 19.4432 7.69638 19.1308 7.84776 18.7654C7.99913 18.3999 8.03874 17.9978 7.96157 17.6098C7.8844 17.2219 7.69392 16.8655 7.41421 16.5858C7.13451 16.3061 6.77814 16.1156 6.39018 16.0384C6.00222 15.9613 5.60009 16.0009 5.23463 16.1522C4.86918 16.3036 4.55682 16.56 4.33706 16.8889C4.1173 17.2178 4 17.6044 4 18C4 18.5304 4.21071 19.0391 4.58579 19.4142C4.96086 19.7893 5.46957 20 6 20ZM6 14C6.39556 14 6.78224 13.8827 7.11114 13.6629C7.44004 13.4432 7.69638 13.1308 7.84776 12.7654C7.99913 12.3999 8.03874 11.9978 7.96157 11.6098C7.8844 11.2219 7.69392 10.8655 7.41421 10.5858C7.13451 10.3061 6.77814 10.1156 6.39018 10.0384C6.00222 9.96126 5.60009 10.0009 5.23463 10.1522C4.86918 10.3036 4.55682 10.56 4.33706 10.8889C4.1173 11.2178 4 11.6044 4 12C4 12.5304 4.21071 13.0391 4.58579 13.4142C4.96086 13.7893 5.46957 14 6 14ZM12 14C12.3956 14 12.7822 13.8827 13.1111 13.6629C13.44 13.4432 13.6964 13.1308 13.8478 12.7654C13.9991 12.3999 14.0387 11.9978 13.9616 11.6098C13.8844 11.2219 13.6939 10.8655 13.4142 10.5858C13.1345 10.3061 12.7781 10.1156 12.3902 10.0384C12.0022 9.96126 11.6001 10.0009 11.2346 10.1522C10.8692 10.3036 10.5568 10.56 10.3371 10.8889C10.1173 11.2178 10 11.6044 10 12C10 12.5304 10.2107 13.0391 10.5858 13.4142C10.9609 13.7893 11.4696 14 12 14ZM16 6C16 6.39556 16.1173 6.78224 16.3371 7.11114C16.5568 7.44004 16.8692 7.69639 17.2346 7.84776C17.6001 7.99914 18.0022 8.03874 18.3902 7.96157C18.7781 7.8844 19.1345 7.69392 19.4142 7.41421C19.6939 7.13451 19.8844 6.77814 19.9616 6.39018C20.0387 6.00222 19.9991 5.60009 19.8478 5.23463C19.6964 4.86918 19.44 4.55682 19.1111 4.33706C18.7822 4.1173 18.3956 4 18 4C17.4696 4 16.9609 4.21071 16.5858 4.58579C16.2107 4.96086 16 5.46957 16 6ZM12 8C12.3956 8 12.7822 7.8827 13.1111 7.66294C13.44 7.44318 13.6964 7.13082 13.8478 6.76537C13.9991 6.39992 14.0387 5.99778 13.9616 5.60982C13.8844 5.22186 13.6939 4.86549 13.4142 4.58579C13.1345 4.30608 12.7781 4.1156 12.3902 4.03843C12.0022 3.96126 11.6001 4.00087 11.2346 4.15224C10.8692 4.30362 10.5568 4.55996 10.3371 4.88886C10.1173 5.21776 10 5.60444 10 6C10 6.53043 10.2107 7.03914 10.5858 7.41421C10.9609 7.78929 11.4696 8 12 8ZM18 14C18.3956 14 18.7822 13.8827 19.1111 13.6629C19.44 13.4432 19.6964 13.1308 19.8478 12.7654C19.9991 12.3999 20.0387 11.9978 19.9616 11.6098C19.8844 11.2219 19.6939 10.8655 19.4142 10.5858C19.1345 10.3061 18.7781 10.1156 18.3902 10.0384C18.0022 9.96126 17.6001 10.0009 17.2346 10.1522C16.8692 10.3036 16.5568 10.56 16.3371 10.8889C16.1173 11.2178 16 11.6044 16 12C16 12.5304 16.2107 13.0391 16.5858 13.4142C16.9609 13.7893 17.4696 14 18 14ZM18 20C18.3956 20 18.7822 19.8827 19.1111 19.6629C19.44 19.4432 19.6964 19.1308 19.8478 18.7654C19.9991 18.3999 20.0387 17.9978 19.9616 17.6098C19.8844 17.2219 19.6939 16.8655 19.4142 16.5858C19.1345 16.3061 18.7781 16.1156 18.3902 16.0384C18.0022 15.9613 17.6001 16.0009 17.2346 16.1522C16.8692 16.3036 16.5568 16.56 16.3371 16.8889C16.1173 17.2178 16 17.6044 16 18C16 18.5304 16.2107 19.0391 16.5858 19.4142C16.9609 19.7893 17.4696 20 18 20Z" fill="#666666"/>
</g>
<defs>
<clipPath id="clip0_7478_7814">
<rect width="24" height="24" fill="white"/>
</clipPath>
</defs>
</svg>
