<svg width="48" height="48" viewBox="0 0 48 48" fill="none" xmlns="http://www.w3.org/2000/svg">
<path d="M0 24C0 4.8 4.8 0 24 0C43.2 0 48 4.8 48 24C48 43.2 43.2 48 24 48C4.8 48 0 43.2 0 24Z" fill="url(#paint0_linear_177_32)"/>
<g filter="url(#filter0_d_177_32)">
<path d="M23.9998 10.2C31.6212 10.2 37.7995 16.3784 37.7996 23.9998C37.7996 26.9439 36.8773 29.6724 35.3064 31.9129L37.0964 33.7029L37.1824 33.7928C38.0333 34.7349 38.0043 36.1886 37.0964 37.0965C36.1886 38.0043 34.7348 38.0334 33.7927 37.1824L33.7029 37.0965L31.9128 35.3064C29.6724 36.8774 26.9439 37.7996 23.9998 37.7996C16.3783 37.7995 10.2 31.6213 10.2 23.9998C10.2001 16.3784 16.3784 10.2001 23.9998 10.2ZM23.9998 13.8152C18.3753 13.8153 13.8153 18.3753 13.8152 23.9998C13.8152 29.6244 18.3752 34.1843 23.9998 34.1844C29.6244 34.1844 34.1843 29.6244 34.1843 23.9998C34.1842 18.3753 29.6243 13.8152 23.9998 13.8152ZM25.2605 25.2C26.3543 25.2196 27.4237 25.5322 28.3611 26.1062C28.5627 26.2297 28.7566 26.3646 28.9421 26.5096C30.1822 27.4784 30.0327 29.3508 28.7488 30.2605C28.414 30.4977 28.0621 30.7109 27.6951 30.8973C26.5596 31.4737 25.3105 31.7825 24.0417 31.7996C22.7731 31.8167 21.5169 31.5414 20.3669 30.9959C19.9906 30.8174 19.6285 30.6112 19.2839 30.3797C17.985 29.5067 17.7824 27.6515 18.9812 26.6453C19.1918 26.4686 19.414 26.305 19.6472 26.157C20.6046 25.5496 21.7067 25.219 22.8347 25.2H25.2605ZM23.9998 16.2C24.9545 16.2 25.8705 16.5796 26.5457 17.2547C27.2206 17.9297 27.6002 18.845 27.6003 19.7996C27.6003 20.7544 27.2207 21.6704 26.5457 22.3455C25.8705 23.0206 24.9545 23.4002 23.9998 23.4002C23.0451 23.4001 22.1299 23.0205 21.4548 22.3455C20.7797 21.6704 20.4001 20.7544 20.4001 19.7996C20.4003 18.845 20.7798 17.9297 21.4548 17.2547C22.1299 16.5797 23.0451 16.2001 23.9998 16.2Z" fill="white"/>
</g>
<defs>
<filter id="filter0_d_177_32" x="6.19995" y="8.2" width="35.5997" height="35.5997" filterUnits="userSpaceOnUse" color-interpolation-filters="sRGB">
<feFlood flood-opacity="0" result="BackgroundImageFix"/>
<feColorMatrix in="SourceAlpha" type="matrix" values="0 0 0 0 0 0 0 0 0 0 0 0 0 0 0 0 0 0 127 0" result="hardAlpha"/>
<feOffset dy="2"/>
<feGaussianBlur stdDeviation="2"/>
<feComposite in2="hardAlpha" operator="out"/>
<feColorMatrix type="matrix" values="0 0 0 0 0.182083 0 0 0 0 0.243258 0 0 0 0 0.316667 0 0 0 0.16 0"/>
<feBlend mode="normal" in2="BackgroundImageFix" result="effect1_dropShadow_177_32"/>
<feBlend mode="normal" in="SourceGraphic" in2="effect1_dropShadow_177_32" result="shape"/>
</filter>
<linearGradient id="paint0_linear_177_32" x1="24" y1="0" x2="24" y2="48" gradientUnits="userSpaceOnUse">
<stop stop-color="#3990FF"/>
<stop offset="1" stop-color="#2662FF"/>
</linearGradient>
</defs>
</svg>
